# xmcd
#
# Track frame offsets:
#  150
#  8672
#  20492
#  36772
#  47392
#  58815
#  70220
#  80310
#  90175
#  97666
#  108465
#  116737
#  124806
#  137225
#  143943
#  158257
#  169053
#  183079
#  200847
#  215307
#
# Disc length: 3013 seconds
#
# Revision: 1
# Processed by: cddbd v1.5.1PL0 Copyright (c) Steve Scherf et al.
# Submitted via: Collectorz.com_Music_Collector 6.9
#
DISCID=010bc314
DTITLE=Johnny Bond - The Home Recordings
DYEAR=2002
DGENRE=Country
TTITLE0=The Clouds Will Soon Roll By
TTITLE1=Blue Eyes Cryin' In The Rain
TTITLE2=I'm Lonely And Blue
TTITLE3=The End Of The World
TTITLE4=Address Unknown
TTITLE5=Born To Lose
TTITLE6=I'm Thinkin' Tonight Of My Blue Eyes
TTITLE7=Down On The Old Plantation
TTITLE8=Dear Evalina
TTITLE9=Don't Live A Lie
TTITLE10=If I Had My Way
TTITLE11=I Hang My Head And Cry
TTITLE12=Keep A Light In Your Window Tonight
TTITLE13=By A Window At The End Of The Lane
TTITLE14=My Pretty Quadroon
TTITLE15=Blue Ridge Mountain Blues
TTITLE16=Oklahoma Waltz/Cherokee Waltz
TTITLE17=I Wonder Where You Are Tonight/One Sweet Letter From You
TTITLE18=The Fool's Paradise
TTITLE19=My Darlin' Lola Lee
EXTD=
EXTT0=
EXTT1=
EXTT2=
EXTT3=
EXTT4=
EXTT5=
EXTT6=
EXTT7=
EXTT8=
EXTT9=
EXTT10=
EXTT11=
EXTT12=
EXTT13=
EXTT14=
EXTT15=
EXTT16=
EXTT17=
EXTT18=
EXTT19=
PLAYORDER=
